<?xml version="1.0" encoding="utf-8"?>
<!-- Generator: Adobe Illustrator 19.0.0, SVG Export Plug-In . SVG Version: 6.00 Build 0)  -->
<svg version="1.1" id="Layer_1" xmlns="http://www.w3.org/2000/svg" xmlns:xlink="http://www.w3.org/1999/xlink" x="0px" y="0px"
	 viewBox="0 0 566.9 566.9" style="enable-background:new 0 0 566.9 566.9;" xml:space="preserve">
<style type="text/css">
	.st0{fill:#FFFFFF;}
	.st1{fill:#282828;}
	.st2{fill:url(#XMLID_3_);}
	.st3{opacity:0.14;fill:#282828;}
	.st4{opacity:0.17;fill:#282828;}
	.st5{fill:none;stroke:#FFFFFF;stroke-width:2;stroke-miterlimit:10;}
	.st6{opacity:0.53;}
	.st7{opacity:0.46;fill:#282828;}
	.st8{opacity:0.87;fill:#FFFFFF;}
	.st9{opacity:0.11;}
	.st10{fill:#231F20;}
	.st11{fill:url(#XMLID_4_);}
	.st12{fill:url(#XMLID_5_);}
</style>
<g id="XMLID_1_">
	
		<image style="overflow:visible;opacity:0.75;" width="2325" height="2244" id="XMLID_723_" xlink:href="196702F7.png"  transform="matrix(0.24 0 0 0.24 6.4553 14.3352)">
	</image>
	<g id="XMLID_412_">
		<g id="XMLID_622_">
			<path id="XMLID_672_" class="st0" d="M163.4,119.8c-0.1-2.3-0.2-4.7-0.4-7.1c-0.2-2.3-0.4-4.6-0.6-7c-0.2-2.2-0.5-4.5-0.7-6.7
				c-0.3-2.1-0.5-4.2-0.8-6.3c-0.3-2-0.6-3.9-0.9-5.8c-0.3-1.8-0.6-3.5-0.9-5.3c-0.3-1.5-0.5-3-0.8-4.6c-0.2-1.3-0.5-2.5-0.7-3.8
				l-0.6-2.8c-0.7-3.4-1.8-7.1-3.5-11.3c-1.4-3.6-3.2-7-5.2-10.3c-1.8-3-3.9-5.8-6.2-8.5c-12.5-14.8-30.5-23.5-50.5-24.5
				c-20-1-39.6,5.8-55.3,19.1c-32.5,27.6-37.9,74.8-12,105.3c6.2,7.3,13.9,13.2,22.9,17.7l4.1,1.7c10.8,4.2,48.1,17.8,76.8,17.8
				c9.5,0,17.2-1.5,22.9-4.6l1.7-1.2l1.2-1.3c1.1-1.4,2.1-3,3-4.8c0.9-1.7,1.6-3.5,2.3-5.4c0.7-1.9,1.2-3.8,1.7-6
				c0.5-2,0.9-4.1,1.2-6.4c0.3-2.1,0.6-4.4,0.8-6.7c0.2-2.2,0.3-4.6,0.4-7c0.1-2.3,0.1-4.7,0.1-7.1
				C163.5,124.7,163.5,122.3,163.4,119.8z"/>
			<g id="XMLID_668_">
				<path id="XMLID_669_" class="st1" d="M149.1,168.7c-25.4,13.5-89-10.5-96.1-13.3l-2.8-1.1l0-0.1c-8.7-4-16.2-9.6-22.3-16.8
					C3.6,108.7,8.8,64.4,39.3,38.5c30.5-25.9,75.1-23.7,99.3,4.8c6.1,7.2,10.5,15.5,13,24.7l0.1,0l0.3,1.3l0.3,1.7
					c1.6,7.5,14.9,74.2-2.1,96.6l-0.4,0.6L149.1,168.7z M44.5,44.6C17.3,67.7,12.6,106.9,34,132.1c5.9,7,13.3,12.3,21.9,15.7
					l1.4,0.6c6.6,2.5,65.5,24.1,86.9,13.8c13.9-19.9,1.9-81.7,0.5-88.7l-0.2-0.7c-2-9.1-6.1-17.2-12-24.2
					C111.2,23.3,71.7,21.6,44.5,44.6z"/>
			</g>
			<path id="XMLID_663_" class="st0" d="M40.4,39.8c29.8-25.3,73.3-23.2,96.9,4.6c6.2,7.3,10.7,15.8,13,25.2l0,0l0.3,1.7
				c1.6,7.4,14.8,73.4-1.8,95.2l-0.3,0.4l-0.6,0.4c-24.5,13-87.4-10.8-94.5-13.5l-1.6-0.6l0-0.1c-8.9-3.9-16.6-9.5-22.8-16.9
				C5.6,108.4,10.6,65.1,40.4,39.8 M145.4,163.5c14.6-20,2.7-82,1-90.4l-0.2-0.8c-2.1-9.3-6.2-17.7-12.4-24.9
				c-22-25.9-62.6-27.7-90.4-4.1c-27.9,23.7-32.7,64-10.7,89.9c6.1,7.2,13.7,12.6,22.6,16.2l1.4,0.6
				C66.7,153.8,124,174.5,145.4,163.5 M38.2,37.2C6.9,63.7,1.7,109.1,26.6,138.4c6,7.1,13.3,12.7,21.8,16.9l2.4,1l1.6,0.6
				c11.8,4.6,72,26.8,97.3,13.4l0.2-0.1l0.2-0.2l0.6-0.4l0.4-0.3l0.3-0.4l0.3-0.4c1-1.4,1.9-2.8,2.7-4.3c0.8-1.6,1.5-3.3,2.2-5.1
				c0.7-1.9,1.2-3.7,1.7-5.7c0.5-2,0.9-4.1,1.2-6.2c0.3-2.2,0.6-4.4,0.8-6.6c0.2-2.3,0.3-4.6,0.4-6.8c0.1-2.3,0.1-4.7,0.1-7
				c0-2.4-0.1-4.7-0.2-7.1c-0.1-2.3-0.2-4.7-0.4-7c-0.2-2.3-0.4-4.6-0.6-6.9c-0.2-2.2-0.5-4.4-0.7-6.6c-0.3-2.1-0.5-4.2-0.8-6.3
				c-0.3-1.9-0.6-3.9-0.9-5.8c-0.3-1.7-0.6-3.5-0.9-5.2c-0.3-1.5-0.5-3-0.8-4.5c-0.2-1.2-0.5-2.5-0.7-3.7c-0.2-0.9-0.4-1.9-0.6-2.8
				c-0.7-3.7-1.9-7.3-3.3-10.7c-1.4-3.4-3-6.7-4.9-9.9c-1.8-2.9-3.7-5.6-5.9-8.2C115.1,12.9,69.5,10.7,38.2,37.2z M143,160.8
				c-16,7.2-55.7-2.9-85.2-14l-1.3-0.5c-8.4-3.4-15.5-8.5-21.2-15.3c-20.8-24.5-16.1-62.6,10.3-85.1c26.4-22.4,64.8-20.8,85.6,3.7
				c5.7,6.8,9.7,14.7,11.6,23.4l0.2,0.9C148.1,98.8,153.6,144.8,143,160.8L143,160.8z"/>
			<g id="XMLID_661_">
				
					<linearGradient id="XMLID_3_" gradientUnits="userSpaceOnUse" x1="38.6707" y1="-41.409" x2="170.3123" y2="-41.409" gradientTransform="matrix(0.936 -0.352 0.352 0.936 5.0191 179.1101)">
					<stop  offset="0" style="stop-color:#4CF928"/>
					<stop  offset="1" style="stop-color:#60F4F4"/>
				</linearGradient>
				<path id="XMLID_662_" class="st2" d="M43.4,43.3c-27.9,23.7-32.7,64-10.7,89.9c6.1,7.2,13.7,12.6,22.6,16.2l1.4,0.6
					c10,3.8,67.3,24.5,88.7,13.5c14.6-20,2.7-82,1-90.4l-0.2-0.8c-2.1-9.3-6.2-17.7-12.4-24.9C111.9,21.5,71.3,19.7,43.4,43.3z"/>
			</g>
			<path id="XMLID_660_" class="st3" d="M48.8,49.7c26.2-22.3,63.7-21.9,86.4-0.2c-1-1.5-2.1-2.9-3.2-4.3
				c-22-25.9-62.6-27.7-90.4-4.1c-27.9,23.7-32.7,64-10.7,89.9c1.2,1.4,2.4,2.6,3.7,3.9C16.8,109,22.6,72,48.8,49.7z"/>
			<path id="XMLID_659_" class="st4" d="M39.7,126.2l-2.4,2.1l1.2,1.7c1,1.5,2.1,2.9,3.3,4.3c18.4,21.7,52.1,23.5,75.2,4l2.4-2.1
				l-1.2-1.7c-1-1.5-2.1-2.9-3.3-4.3C96.4,108.4,62.7,106.6,39.7,126.2z"/>
			<path id="XMLID_658_" class="st4" d="M129.6,52.5l-1.5-1.4l-2.4,2.1c-23,19.5-26.7,53.1-8.3,74.8c1.2,1.4,2.4,2.7,3.7,3.9
				l1.5,1.4l2.4-2.1c23-19.5,26.7-53.1,8.3-74.8C132.1,55,130.9,53.7,129.6,52.5z"/>
			<path id="XMLID_657_" class="st1" d="M37.1,123.2l-2.4,2.1l1.2,1.7c1,1.5,2.1,2.9,3.3,4.3c18.4,21.7,52.1,23.5,75.2,4l2.4-2.1
				l-1.2-1.7c-1-1.5-2.1-2.9-3.3-4.3C93.8,105.4,60.1,103.6,37.1,123.2z"/>
			<path id="XMLID_656_" class="st1" d="M127.1,49.5l-1.5-1.4l-2.4,2.1c-23,19.5-26.7,53.1-8.3,74.8c1.2,1.4,2.4,2.7,3.7,3.9
				l1.5,1.4l2.4-2.1c23-19.5,26.7-53.1,8.3-74.8C129.6,52,128.4,50.7,127.1,49.5z"/>
			
				<image style="overflow:visible;" width="679" height="679" id="XMLID_655_" xlink:href="196702F5.png"  transform="matrix(1.135 0 0 1.135 -97.3703 -100.4067)">
			</image>
			<g id="XMLID_649_">
				<circle id="XMLID_654_" class="st5" cx="288.1" cy="285.3" r="214.8"/>
				<g id="XMLID_650_">
					<path id="XMLID_651_" class="st0" d="M287.3,503.2c-120.1,0-217.8-97.7-217.8-217.8c0-120.1,97.7-217.8,217.8-217.8
						s217.8,97.7,217.8,217.8C505.1,405.5,407.4,503.2,287.3,503.2z M287.3,74.4c-116.4,0-211,94.7-211,211s94.7,211,211,211
						c116.4,0,211-94.7,211-211S403.7,74.4,287.3,74.4z"/>
				</g>
			</g>
			<g id="XMLID_627_">
				<ellipse id="XMLID_648_" class="st0" cx="388.2" cy="377.1" rx="152.2" ry="153.9"/>
				<path id="XMLID_645_" class="st1" d="M388.6,534c-86.7,0-157.2-70.5-157.2-157.2c0-86.7,70.5-157.2,157.2-157.2
					s157.2,70.5,157.2,157.2C545.8,463.5,475.3,534,388.6,534z M388.6,234.6c-78.4,0-142.2,63.8-142.2,142.2s63.8,142.2,142.2,142.2
					c78.4,0,142.2-63.8,142.2-142.2S467.1,234.6,388.6,234.6z"/>
				<path id="XMLID_640_" class="st0" d="M388.6,222.8c84.9,0,154,69.1,154,154c0,84.9-69.1,154-154,154s-154-69.1-154-154
					C234.6,291.9,303.7,222.8,388.6,222.8 M388.6,522.3c80.2,0,145.4-65.2,145.4-145.4s-65.2-145.4-145.4-145.4
					c-80.2,0-145.4,65.2-145.4,145.4S308.5,522.3,388.6,522.3 M388.6,216.6c-88.4,0-160.3,71.9-160.3,160.3s71.9,160.3,160.3,160.3
					c88.4,0,160.3-71.9,160.3-160.3S477,216.6,388.6,216.6L388.6,216.6z M388.6,516c-76.7,0-139.1-62.4-139.1-139.1
					s62.4-139.1,139.1-139.1c76.7,0,139.1,62.4,139.1,139.1S465.4,516,388.6,516L388.6,516z"/>
				<g id="XMLID_636_" class="st6">
					<path id="XMLID_637_" class="st7" d="M239.8,385.8c0-88.4,60.4-160.3,148.8-160.3s149.2,71.9,149.2,160.3 M532.6,385.8
						c0-76.7-67.3-139.1-144-139.1c-76.7,0-144,62.4-144,139.1"/>
				</g>
				<g id="XMLID_632_" class="st6">
					<path id="XMLID_633_" class="st7" d="M537.9,364.8c0,88.4-60.9,143.5-149.2,143.5s-151.5-61.2-151.5-149.5 M252.2,363.2
						c0,76.7,59.7,124,136.5,124c76.7,0,139.1-62.4,139.1-139.1"/>
				</g>
				<path id="XMLID_631_" class="st1" d="M494,298.3c-28-20.9-65.1-32.4-104.3-32.4c-39.3,0-76.3,11.5-104.3,32.4
					c-29.2,21.8-45.3,51.3-45.3,82.9c0,31.7,16.1,61.1,45.3,82.9c28,20.9,65.1,32.4,104.3,32.4c39.3,0,76.3-11.5,104.3-32.4
					c29.2-21.8,45.3-51.3,45.3-82.9C539.3,349.6,523.2,320.1,494,298.3z"/>
				<path id="XMLID_630_" class="st8" d="M331.8,300.3c-2,0.5-4,1.1-6,1.8c-14.7,14.5-54.8,38.5-54.6,113
					c7.6,5.3,20.7,0.6,19.7-11.2c-0.3-3.1-0.4-6.2-0.4-9.4c0-35.9,17.5-67.8,44.5-87.4C338.4,304.6,335.9,299.3,331.8,300.3z"/>
				<path id="XMLID_629_" class="st8" d="M325.9,302.1c-35.8,12.1-61.5,45.9-61.5,85.7c0,6.9,0.8,13.6,2.2,20
					c0.8,3.4,2.5,5.8,4.7,7.3C271,340.6,311.1,316.7,325.9,302.1z"/>
				<path id="XMLID_628_" class="st9" d="M325.9,302.1c-35.8,12.1-61.5,45.9-61.5,85.7c0,6.9,0.8,13.6,2.2,20
					c0.8,3.4,2.5,5.8,4.7,7.3C271,340.6,311.1,316.7,325.9,302.1z"/>
			</g>
			<path id="XMLID_626_" class="st10" d="M121.6,201.6c-7.4,0-15.1-3.3-21-9.1c-5.2-5-8.5-11.4-9.4-17.9c-1-7.1,1-13.5,5.5-18.1
				c3.7-3.8,9-6,14.8-6.1l0.3,0c7.4,0,15.1,3.3,21,9.1c5.2,5,8.5,11.4,9.4,17.9c1,7.1-1,13.5-5.5,18.1c-3.7,3.8-9,6-14.8,6.1
				L121.6,201.6z"/>
			
				<linearGradient id="XMLID_4_" gradientUnits="userSpaceOnUse" x1="93.6674" y1="166.7223" x2="131.7786" y2="166.7223" gradientTransform="matrix(0.9999 -1.184395e-002 1.184395e-002 0.9999 1.9927 10.6369)">
				<stop  offset="0" style="stop-color:#4CF928"/>
				<stop  offset="1" style="stop-color:#60F4F4"/>
			</linearGradient>
			<path id="XMLID_625_" class="st11" d="M121.2,195c-5.7,0.1-11.6-2.5-16.3-7c-8.3-8.1-9.9-20.1-3.4-26.7c2.6-2.7,6.4-4.2,10.5-4.3
				c5.7-0.1,11.6,2.5,16.3,7c8.3,8.1,9.9,20.1,3.4,26.7C129.2,193.5,125.4,195,121.2,195z"/>
			<path id="XMLID_624_" class="st10" d="M174.6,152.1c-7.4,0-15.1-3.3-21-9.1c-5.2-5-8.5-11.4-9.4-17.9c-1-7.1,1-13.5,5.5-18.1
				c3.7-3.8,9-6,14.8-6.1l0.3,0c7.4,0,15.1,3.3,21,9.1c5.2,5,8.5,11.4,9.4,17.9c1,7.1-1,13.5-5.5,18.1c-3.7,3.8-9,6-14.8,6.1
				L174.6,152.1z"/>
			
				<linearGradient id="XMLID_5_" gradientUnits="userSpaceOnUse" x1="147.2153" y1="117.8522" x2="185.3264" y2="117.8522" gradientTransform="matrix(0.9999 -1.184395e-002 1.184395e-002 0.9999 1.9927 10.6369)">
				<stop  offset="0" style="stop-color:#4CF928"/>
				<stop  offset="1" style="stop-color:#60F4F4"/>
			</linearGradient>
			<path id="XMLID_623_" class="st12" d="M174.2,145.5c-5.7,0.1-11.6-2.5-16.3-7c-8.3-8.1-9.9-20.1-3.4-26.7
				c2.6-2.7,6.4-4.2,10.5-4.3c5.7-0.1,11.6,2.5,16.3,7c8.3,8.1,9.9,20.1,3.4,26.7C182.1,144,178.4,145.5,174.2,145.5z"/>
		</g>
	</g>
</g>
</svg>
